<svg width="146" height="146" viewBox="0 0 146 146" xmlns="http://www.w3.org/2000/svg"><g fill="#ffe0bd" fill-rule="evenodd"><path d="M67.603 110.7c5.162-2.702 8.101-1.59 11.082.005" stroke="#000" stroke-linecap="round"/><path d="M74.644 34.345c8.592.077 17.767 5.94 19.69 7.548 3.399 2.844 8.105 9.585 8.807 14.24 2.23 14.78.655 32.736-2.033 41.924-1.332 4.554-8.005 14.456-15.76 18.803-5.932 3.325-17.138 3.44-24.886-.006-10.534-4.686-15.044-14.869-16.513-19.305-4.788-14.462-5.016-23.164-4.884-30.03.088-4.593 1.447-10.182 2.572-14.926 1.124-4.744 5.352-12.778 10.18-15.17 4.826-2.393 14.635-3.15 22.827-3.078z" stroke="#000" stroke-width="4"/><path d="M55.948 82.638c2.726.096 5.57-.092 7.253-1.014 3.57-1.955 5.303-6.27 5.417-9.532.168-4.8-4.434-6.176-10.99-6.405-5.339-.187-10.197.988-11.515 2.174-.594.535-.451 2.596-.191 3.79.421 1.94.695 4.18 1.485 5.877.782 1.678 1.04 2.611 3.065 3.652 1.504.773 3.18 1.378 5.476 1.458zM86.551 82.684c-2.609.045-5.326-.194-6.92-1.146-3.384-2.02-4.973-6.366-5.03-9.63-.084-4.8 4.34-6.094 10.614-6.203 5.108-.09 9.736 1.173 10.978 2.383.56.546.39 2.604.122 3.794-.434 1.93-.73 4.165-1.514 5.848-.775 1.663-1.036 2.592-2.99 3.595-1.45.746-3.063 1.32-5.26 1.359z" stroke="#000" stroke-width="2.6"/><path d="M73.731 69.469c-1.307-.504-2.663-.44-4.066.193" stroke="#000" stroke-width="2.6" stroke-linecap="round"/><path d="M97.362 67.807l6.984-1.992M39.231 67.122l5.646 1.072" stroke="#000" stroke-width="2.6" stroke-linecap="square"/><path d="M68.674 86.173s1.176 1.91 3.708 1.91c1.573 0 2.785-.664 3.636-1.99M64.355 97.87c2.07.51 4.722 1.2 9.18 1.013 2.55-.106 5.39-.69 8.524-1.752" stroke="#000" stroke-width="3" stroke-linecap="round"/><path d="M36.377 57.176c.276 5.997 3.015 9.007 3.325 7.902.09-.32.23-.596.643-1.517.975-2.176 2-3.197 2.355-5.507.123-.801-.2-2.048.296-2.774.622-.912 2.215-8.064 2.26-8.868.114-2.098 4.912-8.87 4.425-9.53-.403-.546-3.779-.992-5.307-.844-.915.088-2.202 1.685-2.428 2.045-4.297 6.851-5.822 13.608-5.57 19.093zM106.041 61.071c0 5.889-2.12 6.473-2.479 5.273-.103-.346-.157 1.207-.651.158-1.17-2.48-1.507-6.12-1.885-8.529-.296-1.885-2.983-1.656-3.318-3.712-.237-1.457-.426-4.055-1.261-6.715s-1.204-4.117-2.397-5.914c-1.25-1.882-.444-2.374-.117-2.628.846-.657 3.821-3.038 4.822-2.12.655.602 1.774 4.04 2.27 4.748 5.13 7.304 5.016 14.37 5.016 19.44z" fill="#000"/><path d="M45.735 37.98c-2.195-1.17-2.837 6.02-3.833 4.767-.817-1.027 1.16-7.973 1.759-8.636.426-.471 1.686-1.556 2.074-2.193.565-.928.647-2.574 1.689-3.556.503-.475 1.698-.405 2.586-.688 1.243-.395 2.36-1.074 4.316-1.33 1.3-.17 3.294-1.296 5.079-1.524 1.135-.145 1.593-.063 2.543 0 1.118.075 2.49-.767 3.074-.907 2.12-.508 3.365-.166 5.654 0 .647.047 1.653.724 2.488.907 1.129.248 1.793-1.81 2.86-1.82.956-.01 1.754.45 3.011.913.971.358 2.439.707 3.071.907.981.31 2.075.733 3.44.955 1.154.187 2.582.154 3.486.569 1.916.88 2.247 1.993 3.105 3.224.387.554 2.101.658 2.776 1.23.811.69.483 2.167 1.139 2.801.673.65 1.552 1.284 1.68 1.708.192.635-.318 7.279-1.68 7.44-1.763.209-5.08-4.006-11.412-5.474-3.77-.874-12.363-1.149-13.527-1.14-22.175.184-30.634.8-25.378 1.847z" stroke="#000" fill="#000"/><path d="M80.678 65.116c2.1-.284 3.507-.462 4.219-.532 1.346-.132 3.729-.347 4.877-.347M52.696 64.262c2.344.057 3.874.081 4.589.074 1.353-.014 3.472.302 4.615.402" stroke="#000" stroke-width="2.5" stroke-linecap="round"/><path d="M105.059 66.383c2.515-1.473 4.944-2.534 6.377.958.652 1.59-1.89 5.846-2.554 9.764-.494 2.912-1.014 5.185-1.701 6.322-1.075 1.778-2.566 2.261-4.474 1.45M38.273 68.4c-2.578-1.63-3.603-2.51-5.596.269-1.157 1.614.878 5.348 1.392 9.39.371 2.916.309 6.036.963 7.205 1.04 1.86 2.623 2.521 4.746 1.986" stroke="#000" stroke-width="4"/><path d="M60.518 71.896c-1.807-.26-3.134-.556-5.78.199" stroke="#000" stroke-width="3" stroke-linecap="round"/><path d="M59.207 74.336a1.5 1.5 0 11-.053-3 1.5 1.5 0 01.053 3z" stroke="#000" stroke-width="1.2" fill="#000"/><path d="M81.982 71.579c1.785-.386 3.088-.773 5.78-.205" stroke="#000" stroke-width="3" stroke-linecap="round"/><path d="M83.552 73.673a1.5 1.5 0 10-.157-2.996 1.5 1.5 0 00.157 2.996z" stroke="#000" stroke-width="1.2" fill="#000"/></g></svg>